<svg xmlns="http://www.w3.org/2000/svg" width="640" height="360" viewBox="-40.000 -81.697 410.000 250.851">
<style>
.target{fill:none;stroke:#9aa3ad;stroke-width:1;stroke-opacity:.45}
.curve{fill:none;stroke:#0067ff;stroke-width:2.4;stroke-linecap:round}
.cv{fill:none;stroke:#ff7a00;stroke-width:1.2;stroke-dasharray:6 4}
.pt{fill:#ff7a00;stroke:white;stroke-width:1}
.comb{stroke:#00a36c;stroke-width:.8;stroke-opacity:.65}
.label{font:12px sans-serif;fill:#1f2937}
</style>
<polyline class="target" points="0.000,0.000 30.000,-8.000 60.000,-16.000 90.000,-20.000 120.000,-17.000 150.000,-7.000 180.000,6.000 210.000,17.000 240.000,21.000 270.000,16.000 300.000,6.000 330.000,0.000"/>
<polyline class="target" points="0.000,120.000 40.000,120.000 80.000,119.000 115.000,112.000 140.000,92.000 153.000,62.000 156.000,30.000 156.000,0.000"/>
<polyline class="curve" points="0.000,0.000 1.813,-0.411 3.630,-0.847 5.453,-1.307 7.280,-1.788 9.111,-2.288 10.947,-2.804 12.786,-3.335 14.630,-3.879 16.476,-4.433 18.326,-4.996 20.179,-5.565 22.034,-6.139 23.893,-6.716 25.753,-7.295 27.616,-7.873 29.481,-8.450 31.347,-9.023 33.216,-9.591 35.086,-10.153 36.957,-10.707 38.829,-11.252 40.702,-11.786 42.576,-12.309 44.451,-12.819 46.326,-13.316 48.202,-13.797 50.078,-14.262 51.954,-14.711 53.830,-15.141 55.706,-15.553 57.582,-15.946 59.458,-16.318 61.333,-16.669 63.207,-16.998 65.081,-17.306 66.955,-17.590 68.827,-17.851 70.699,-18.088 72.569,-18.302 74.439,-18.490 76.307,-18.654 78.175,-18.792 80.041,-18.905 81.906,-18.993 83.770,-19.055 85.632,-19.090 87.493,-19.100 89.352,-19.084 91.210,-19.042 93.067,-18.974 94.922,-18.880 96.775,-18.761 98.627,-18.616 100.477,-18.446 102.326,-18.251 104.173,-18.031 106.019,-17.786 107.863,-17.517 109.705,-17.225 111.546,-16.910 113.386,-16.571 115.224,-16.210 117.060,-15.827 118.895,-15.423 120.728,-14.998 122.560,-14.553 124.390,-14.088 126.219,-13.604 128.047,-13.102 129.873,-12.583 131.698,-12.046 133.522,-11.493 135.344,-10.925 137.166,-10.342 138.986,-9.745 140.805,-9.135 142.623,-8.512 144.440,-7.879 146.256,-7.234 148.072,-6.580 149.886,-5.917 151.700,-5.246 153.513,-4.568 155.326,-3.884 157.137,-3.194 158.949,-2.500 160.759,-1.803 162.570,-1.103 164.380,-0.402 166.190,0.300 167.999,1.002 169.809,1.703 171.618,2.401 173.427,3.096 175.236,3.788 177.046,4.474 178.855,5.154 180.665,5.827 182.475,6.493 184.285,7.150 186.096,7.798 187.907,8.435 189.718,9.061 191.530,9.674 193.343,10.275 195.157,10.861 196.971,11.433 198.786,11.990 200.601,12.530 202.418,13.053 204.235,13.559 206.054,14.046 207.873,14.514 209.694,14.961 211.515,15.389 213.338,15.795 215.162,16.179 216.987,16.541 218.813,16.880 220.640,17.196 222.469,17.488 224.299,17.756 226.131,17.998 227.963,18.216 229.797,18.408 231.633,18.575 233.469,18.715 235.308,18.829 237.147,18.916 238.988,18.977 240.830,19.011 242.674,19.018 244.519,18.999 246.365,18.952 248.213,18.879 250.062,18.779 251.912,18.652 253.764,18.499 255.617,18.320 257.471,18.116 259.326,17.886 261.183,17.631 263.040,17.351 264.899,17.048 266.758,16.721 268.619,16.372 270.480,16.000 272.343,15.607 274.206,15.194 276.069,14.761 277.934,14.309 279.799,13.840 281.664,13.354 283.530,12.853 285.396,12.337 287.263,11.808 289.129,11.268 290.996,10.717 292.862,10.158 294.729,9.591 296.595,9.018 298.460,8.442 300.326,7.863 302.190,7.283 304.054,6.705 305.917,6.131 307.780,5.561 309.641,5.000 311.500,4.448 313.359,3.908 315.216,3.382 317.071,2.873 318.925,2.383 320.776,1.916 322.626,1.472 324.473,1.056 326.318,0.670 328.160,0.317 330.000,0.000"/>
<polyline class="cv" points="0.000,0.000 46.283,-10.159 96.645,-41.697 144.080,-28.804 186.835,27.131 233.809,45.023 282.992,7.622 330.000,0.000"/>
<circle class="pt" cx="0.000" cy="0.000" r="3"/>
<circle class="pt" cx="46.283" cy="-10.159" r="3"/>
<circle class="pt" cx="96.645" cy="-41.697" r="3"/>
<circle class="pt" cx="144.080" cy="-28.804" r="3"/>
<circle class="pt" cx="186.835" cy="27.131" r="3"/>
<circle class="pt" cx="233.809" cy="45.023" r="3"/>
<circle class="pt" cx="282.992" cy="7.622" r="3"/>
<circle class="pt" cx="330.000" cy="0.000" r="3"/>
<line class="comb" x1="0.000" y1="0.000" x2="-4.307" y2="-18.997"/>
<line class="comb" x1="10.947" y1="-2.804" x2="8.470" y2="-11.494"/>
<line class="comb" x1="22.034" y1="-6.139" x2="21.597" y2="-7.549"/>
<line class="comb" x1="33.216" y1="-9.591" x2="34.480" y2="-5.408"/>
<line class="comb" x1="44.451" y1="-12.819" x2="46.829" y2="-3.958"/>
<line class="comb" x1="55.706" y1="-15.553" x2="58.471" y2="-2.657"/>
<line class="comb" x1="66.955" y1="-17.590" x2="69.311" y2="-1.410"/>
<line class="comb" x1="78.175" y1="-18.792" x2="79.413" y2="-0.411"/>
<line class="comb" x1="89.352" y1="-19.084" x2="89.052" y2="0.082"/>
<line class="comb" x1="100.477" y1="-18.446" x2="98.657" y2="-0.017"/>
<line class="comb" x1="111.546" y1="-16.910" x2="108.634" y2="-0.522"/>
<line class="comb" x1="122.560" y1="-14.553" x2="119.211" y2="-1.078"/>
<line class="comb" x1="133.522" y1="-11.493" x2="130.404" y2="-1.354"/>
<line class="comb" x1="144.440" y1="-7.879" x2="142.086" y2="-1.187"/>
<line class="comb" x1="155.326" y1="-3.884" x2="154.087" y2="-0.615"/>
<line class="comb" x1="166.190" y1="0.300" x2="166.239" y2="0.174"/>
<line class="comb" x1="177.046" y1="4.474" x2="178.390" y2="0.914"/>
<line class="comb" x1="187.907" y1="8.435" x2="190.381" y2="1.336"/>
<line class="comb" x1="198.786" y1="11.990" x2="202.028" y2="1.257"/>
<line class="comb" x1="209.694" y1="14.961" x2="213.129" y2="0.664"/>
<line class="comb" x1="220.640" y1="17.196" x2="223.535" y2="-0.220"/>
<line class="comb" x1="231.633" y1="18.575" x2="233.264" y2="-0.967"/>
<line class="comb" x1="242.674" y1="19.018" x2="242.606" y2="-1.127"/>
<line class="comb" x1="253.764" y1="18.499" x2="252.065" y2="-0.478"/>
<line class="comb" x1="264.899" y1="17.048" x2="262.155" y2="0.859"/>
<line class="comb" x1="276.069" y1="14.761" x2="273.178" y2="2.577"/>
<line class="comb" x1="287.263" y1="11.808" x2="285.173" y2="4.512"/>
<line class="comb" x1="298.460" y1="8.442" x2="297.996" y2="6.943"/>
<line class="comb" x1="309.641" y1="5.000" x2="311.376" y2="10.797"/>
<line class="comb" x1="320.776" y1="1.916" x2="324.685" y2="17.791"/>
<text class="label" x="14.630" y="-11.879">beltline_s_curve d7 span=1</text>
<polyline class="curve" points="0.000,120.000 1.375,119.947 2.744,119.898 4.108,119.852 5.467,119.810 6.822,119.772 8.174,119.738 9.521,119.707 10.866,119.681 12.209,119.659 13.549,119.640 14.888,119.626 16.225,119.615 17.561,119.609 18.896,119.605 20.231,119.606 21.566,119.610 22.901,119.617 24.236,119.627 25.572,119.640 26.908,119.655 28.246,119.673 29.585,119.693 30.925,119.715 32.266,119.738 33.609,119.763 34.954,119.788 36.300,119.814 37.648,119.841 38.998,119.867 40.350,119.894 41.704,119.919 43.060,119.944 44.418,119.966 45.778,119.987 47.140,120.006 48.504,120.023 49.869,120.036 51.236,120.046 52.605,120.052 53.976,120.054 55.348,120.051 56.721,120.043 58.095,120.030 59.470,120.011 60.847,119.985 62.224,119.954 63.601,119.914 64.979,119.868 66.357,119.813 67.734,119.751 69.112,119.679 70.489,119.599 71.865,119.509 73.240,119.409 74.613,119.298 75.986,119.177 77.356,119.045 78.724,118.902 80.089,118.747 81.452,118.580 82.812,118.400 84.169,118.207 85.522,118.002 86.870,117.782 88.215,117.549 89.555,117.302 90.890,117.040 92.219,116.764 93.543,116.472 94.861,116.166 96.173,115.843 97.478,115.505 98.776,115.151 100.066,114.781 101.349,114.394 102.624,113.990 103.890,113.569 105.147,113.131 106.395,112.676 107.634,112.204 108.862,111.714 110.081,111.206 111.289,110.680 112.486,110.136 113.671,109.574 114.845,108.994 116.007,108.395 117.157,107.779 118.294,107.143 119.418,106.490 120.529,105.818 121.626,105.127 122.709,104.418 123.778,103.690 124.833,102.944 125.872,102.180 126.897,101.397 127.906,100.596 128.899,99.776 129.876,98.939 130.838,98.083 131.782,97.210 132.710,96.318 133.621,95.409 134.515,94.483 135.392,93.539 136.251,92.578 137.092,91.600 137.915,90.606 138.720,89.595 139.507,88.567 140.275,87.524 141.025,86.464 141.756,85.389 142.468,84.299 143.162,83.194 143.836,82.074 144.492,80.939 145.128,79.791 145.745,78.628 146.343,77.453 146.922,76.264 147.481,75.062 148.022,73.848 148.543,72.622 149.045,71.384 149.528,70.135 149.992,68.875 150.438,67.605 150.864,66.324 151.272,65.034 151.662,63.735 152.033,62.426 152.386,61.110 152.721,59.785 153.038,58.453 153.338,57.113 153.620,55.767 153.886,54.415 154.135,53.057 154.367,51.694 154.584,50.325 154.785,48.953 154.970,47.576 155.140,46.195 155.296,44.812 155.438,43.426 155.566,42.038 155.680,40.648 155.782,39.256 155.872,37.864 155.949,36.471 156.016,35.078 156.072,33.686 156.117,32.294 156.153,30.903 156.180,29.514 156.199,28.127 156.211,26.742 156.215,25.360 156.213,23.981 156.205,22.606 156.192,21.234 156.176,19.866 156.156,18.502 156.133,17.144 156.109,15.790 156.084,14.441 156.059,13.097 156.034,11.760 156.011,10.428 155.991,9.102 155.974,7.782 155.962,6.469 155.955,5.162 155.954,3.861 155.961,2.568 155.976,1.280 156.000,0.000"/>
<polyline class="cv" points="0.000,120.000 35.239,118.612 65.663,119.651 106.363,129.154 148.910,113.776 162.424,70.415 155.250,32.657 156.000,0.000"/>
<circle class="pt" cx="0.000" cy="120.000" r="3"/>
<circle class="pt" cx="35.239" cy="118.612" r="3"/>
<circle class="pt" cx="65.663" cy="119.651" r="3"/>
<circle class="pt" cx="106.363" cy="129.154" r="3"/>
<circle class="pt" cx="148.910" cy="113.776" r="3"/>
<circle class="pt" cx="162.424" cy="70.415" r="3"/>
<circle class="pt" cx="155.250" cy="32.657" r="3"/>
<circle class="pt" cx="156.000" cy="0.000" r="3"/>
<line class="comb" x1="0.000" y1="120.000" x2="0.112" y2="122.914"/>
<line class="comb" x1="8.174" y1="119.738" x2="8.270" y2="123.767"/>
<line class="comb" x1="16.225" y1="119.615" x2="16.251" y2="123.612"/>
<line class="comb" x1="24.236" y1="119.627" x2="24.210" y2="122.619"/>
<line class="comb" x1="32.266" y1="119.738" x2="32.243" y2="121.044"/>
<line class="comb" x1="40.350" y1="119.894" x2="40.365" y2="119.111"/>
<line class="comb" x1="48.504" y1="120.023" x2="48.537" y2="116.954"/>
<line class="comb" x1="56.721" y1="120.043" x2="56.679" y2="114.605"/>
<line class="comb" x1="64.979" y1="119.868" x2="64.691" y2="112.021"/>
<line class="comb" x1="73.240" y1="119.409" x2="72.454" y2="109.128"/>
<line class="comb" x1="81.452" y1="118.580" x2="79.830" y2="105.849"/>
<line class="comb" x1="89.555" y1="117.302" x2="86.671" y2="102.142"/>
<line class="comb" x1="97.478" y1="115.505" x2="92.829" y2="98.025"/>
<line class="comb" x1="105.147" y1="113.131" x2="98.187" y2="93.600"/>
<line class="comb" x1="112.486" y1="110.136" x2="102.701" y2="89.053"/>
<line class="comb" x1="119.418" y1="106.490" x2="106.448" y2="84.627"/>
<line class="comb" x1="125.872" y1="102.180" x2="109.651" y2="80.543"/>
<line class="comb" x1="131.782" y1="97.210" x2="112.648" y2="76.905"/>
<line class="comb" x1="137.092" y1="91.600" x2="115.789" y2="73.626"/>
<line class="comb" x1="141.756" y1="85.389" x2="119.317" y2="70.431"/>
<line class="comb" x1="145.745" y1="78.628" x2="123.283" y2="66.955"/>
<line class="comb" x1="149.045" y1="71.384" x2="127.554" y2="62.869"/>
<line class="comb" x1="151.662" y1="63.735" x2="131.907" y2="57.973"/>
<line class="comb" x1="153.620" y1="55.767" x2="136.127" y2="52.214"/>
<line class="comb" x1="154.970" y1="47.576" x2="140.093" y2="45.656"/>
<line class="comb" x1="155.782" y1="39.256" x2="143.813" y2="38.434"/>
<line class="comb" x1="156.153" y1="30.903" x2="147.446" y2="30.705"/>
<line class="comb" x1="156.205" y1="22.606" x2="151.309" y2="22.642"/>
<line class="comb" x1="156.084" y1="14.441" x2="155.890" y2="14.444"/>
<line class="comb" x1="155.962" y1="6.469" x2="161.817" y2="6.425"/>
<text class="label" x="10.866" y="111.681">soft_l_blend_bumper d7 span=1</text>
</svg>