<svg xmlns="http://www.w3.org/2000/svg" width="640" height="360" viewBox="-40.000 -80.482 410.000 248.451">
<style>
.target{fill:none;stroke:#9aa3ad;stroke-width:1;stroke-opacity:.45}
.curve{fill:none;stroke:#0067ff;stroke-width:2.4;stroke-linecap:round}
.cv{fill:none;stroke:#ff7a00;stroke-width:1.2;stroke-dasharray:6 4}
.pt{fill:#ff7a00;stroke:white;stroke-width:1}
.comb{stroke:#00a36c;stroke-width:.8;stroke-opacity:.65}
.label{font:12px sans-serif;fill:#1f2937}
</style>
<polyline class="target" points="0.000,0.000 30.000,-8.000 60.000,-16.000 90.000,-20.000 120.000,-17.000 150.000,-7.000 180.000,6.000 210.000,17.000 240.000,21.000 270.000,16.000 300.000,6.000 330.000,0.000"/>
<polyline class="target" points="0.000,120.000 40.000,120.000 80.000,119.000 115.000,112.000 140.000,92.000 153.000,62.000 156.000,30.000 156.000,0.000"/>
<polyline class="curve" points="0.000,0.000 1.845,-0.447 3.691,-0.916 5.539,-1.405 7.389,-1.910 9.240,-2.432 11.093,-2.967 12.947,-3.513 14.802,-4.069 16.658,-4.632 18.516,-5.202 20.374,-5.776 22.233,-6.353 24.094,-6.930 25.954,-7.507 27.816,-8.082 29.678,-8.653 31.540,-9.220 33.403,-9.780 35.266,-10.332 37.130,-10.876 38.994,-11.409 40.857,-11.931 42.721,-12.440 44.585,-12.936 46.449,-13.418 48.312,-13.884 50.176,-14.333 52.039,-14.765 53.902,-15.180 55.765,-15.575 57.627,-15.951 59.489,-16.306 61.350,-16.640 63.211,-16.953 65.071,-17.244 66.930,-17.512 68.789,-17.758 70.648,-17.980 72.505,-18.178 74.362,-18.352 76.218,-18.501 78.073,-18.626 79.927,-18.726 81.781,-18.801 83.633,-18.851 85.485,-18.876 87.336,-18.875 89.186,-18.849 91.035,-18.798 92.883,-18.722 94.730,-18.621 96.576,-18.495 98.421,-18.344 100.265,-18.169 102.109,-17.970 103.951,-17.747 105.792,-17.500 107.633,-17.230 109.472,-16.936 111.310,-16.621 113.148,-16.283 114.985,-15.924 116.820,-15.544 118.655,-15.143 120.489,-14.722 122.322,-14.281 124.154,-13.822 125.985,-13.344 127.816,-12.849 129.646,-12.337 131.475,-11.809 133.303,-11.264 135.130,-10.706 136.957,-10.132 138.783,-9.546 140.609,-8.947 142.434,-8.336 144.258,-7.714 146.082,-7.082 147.905,-6.441 149.728,-5.791 151.550,-5.133 153.372,-4.469 155.193,-3.798 157.015,-3.123 158.835,-2.443 160.656,-1.760 162.476,-1.074 164.296,-0.387 166.116,0.301 167.936,0.988 169.755,1.674 171.575,2.358 173.394,3.040 175.214,3.717 177.033,4.390 178.853,5.056 180.673,5.717 182.493,6.370 184.313,7.015 186.133,7.650 187.953,8.276 189.774,8.890 191.595,9.494 193.416,10.084 195.238,10.661 197.060,11.225 198.883,11.773 200.706,12.306 202.529,12.822 204.353,13.321 206.178,13.803 208.003,14.266 209.829,14.709 211.655,15.134 213.482,15.537 215.310,15.920 217.138,16.281 218.967,16.621 220.797,16.937 222.628,17.231 224.459,17.501 226.291,17.747 228.124,17.969 229.958,18.166 231.792,18.338 233.627,18.485 235.464,18.607 237.301,18.703 239.139,18.773 240.977,18.816 242.817,18.834 244.657,18.826 246.499,18.792 248.341,18.731 250.184,18.644 252.028,18.532 253.873,18.394 255.718,18.230 257.565,18.041 259.412,17.827 261.260,17.588 263.109,17.325 264.959,17.039 266.809,16.729 268.661,16.397 270.513,16.042 272.365,15.667 274.219,15.270 276.073,14.854 277.928,14.420 279.783,13.967 281.639,13.497 283.496,13.011 285.353,12.510 287.211,11.995 289.069,11.468 290.927,10.929 292.786,10.381 294.646,9.824 296.506,9.260 298.366,8.690 300.226,8.117 302.087,7.541 303.948,6.965 305.809,6.390 307.670,5.819 309.531,5.252 311.393,4.693 313.254,4.144 315.115,3.605 316.977,3.081 318.838,2.573 320.699,2.083 322.559,1.614 324.420,1.168 326.280,0.749 328.140,0.359 330.000,0.000"/>
<polyline class="cv" points="0.000,0.000 47.146,-11.141 95.735,-40.482 143.118,-27.586 187.512,25.913 234.606,43.805 282.451,8.745 330.000,0.000"/>
<circle class="pt" cx="0.000" cy="0.000" r="3"/>
<circle class="pt" cx="47.146" cy="-11.141" r="3"/>
<circle class="pt" cx="95.735" cy="-40.482" r="3"/>
<circle class="pt" cx="143.118" cy="-27.586" r="3"/>
<circle class="pt" cx="187.512" cy="25.913" r="3"/>
<circle class="pt" cx="234.606" cy="43.805" r="3"/>
<circle class="pt" cx="282.451" cy="8.745" r="3"/>
<circle class="pt" cx="330.000" cy="0.000" r="3"/>
<line class="comb" x1="0.000" y1="0.000" x2="-4.422" y2="-18.240"/>
<line class="comb" x1="11.093" y1="-2.967" x2="8.724" y2="-11.090"/>
<line class="comb" x1="22.233" y1="-6.353" x2="22.070" y2="-6.880"/>
<line class="comb" x1="33.403" y1="-9.780" x2="35.070" y2="-4.197"/>
<line class="comb" x1="44.585" y1="-12.936" x2="47.419" y2="-2.127"/>
<line class="comb" x1="55.765" y1="-15.575" x2="58.934" y2="-0.264"/>
<line class="comb" x1="66.930" y1="-17.512" x2="69.539" y2="1.376"/>
<line class="comb" x1="78.073" y1="-18.626" x2="79.355" y2="2.529"/>
<line class="comb" x1="89.186" y1="-18.849" x2="88.734" y2="2.932"/>
<line class="comb" x1="100.265" y1="-18.169" x2="98.161" y2="2.554"/>
<line class="comb" x1="111.310" y1="-16.621" x2="108.062" y2="1.660"/>
<line class="comb" x1="122.322" y1="-14.281" x2="118.651" y2="0.670"/>
<line class="comb" x1="133.303" y1="-11.264" x2="129.920" y2="-0.051"/>
<line class="comb" x1="144.258" y1="-7.714" x2="141.719" y2="-0.328"/>
<line class="comb" x1="155.193" y1="-3.798" x2="153.862" y2="-0.196"/>
<line class="comb" x1="166.116" y1="0.301" x2="166.170" y2="0.157"/>
<line class="comb" x1="177.033" y1="4.390" x2="178.480" y2="0.460"/>
<line class="comb" x1="187.953" y1="8.276" x2="190.621" y2="0.445"/>
<line class="comb" x1="198.883" y1="11.773" x2="202.396" y2="-0.074"/>
<line class="comb" x1="209.829" y1="14.709" x2="213.588" y2="-1.109"/>
<line class="comb" x1="220.797" y1="16.937" x2="224.025" y2="-2.426"/>
<line class="comb" x1="231.792" y1="18.338" x2="233.697" y2="-3.564"/>
<line class="comb" x1="242.817" y1="18.834" x2="242.876" y2="-4.002"/>
<line class="comb" x1="253.873" y1="18.394" x2="252.087" y2="-3.425"/>
<line class="comb" x1="264.959" y1="17.039" x2="261.909" y2="-1.892"/>
<line class="comb" x1="276.073" y1="14.854" x2="272.730" y2="0.281"/>
<line class="comb" x1="287.211" y1="11.995" x2="284.646" y2="2.850"/>
<line class="comb" x1="298.366" y1="8.690" x2="297.531" y2="5.974"/>
<line class="comb" x1="309.531" y1="5.252" x2="311.100" y2="10.441"/>
<line class="comb" x1="320.699" y1="2.083" x2="324.742" y2="17.779"/>
<text class="label" x="14.802" y="-12.069">beltline_s_curve d7 span=1</text>
<polyline class="curve" points="0.000,120.000 1.380,119.985 2.756,119.969 4.127,119.954 5.494,119.938 6.858,119.924 8.218,119.910 9.576,119.897 10.931,119.885 12.284,119.874 13.634,119.865 14.983,119.857 16.331,119.851 17.678,119.847 19.023,119.844 20.368,119.843 21.713,119.843 23.057,119.845 24.401,119.848 25.745,119.853 27.089,119.858 28.434,119.865 29.779,119.873 31.125,119.881 32.472,119.890 33.820,119.899 35.168,119.908 36.518,119.917 37.868,119.925 39.220,119.933 40.573,119.940 41.927,119.945 43.282,119.949 44.639,119.951 45.996,119.951 47.355,119.948 48.715,119.942 50.076,119.933 51.438,119.920 52.800,119.904 54.164,119.883 55.528,119.857 56.893,119.827 58.258,119.791 59.623,119.749 60.989,119.701 62.355,119.646 63.721,119.585 65.086,119.516 66.451,119.440 67.815,119.355 69.179,119.262 70.541,119.160 71.902,119.049 73.262,118.929 74.620,118.798 75.976,118.658 77.329,118.506 78.681,118.344 80.029,118.170 81.374,117.985 82.716,117.787 84.055,117.577 85.390,117.355 86.720,117.119 88.046,116.870 89.368,116.608 90.684,116.331 91.995,116.041 93.301,115.736 94.600,115.416 95.893,115.081 97.180,114.731 98.459,114.366 99.731,113.984 100.996,113.587 102.253,113.174 103.501,112.745 104.741,112.298 105.972,111.836 107.194,111.356 108.406,110.860 109.609,110.346 110.801,109.815 111.982,109.267 113.153,108.701 114.313,108.117 115.461,107.516 116.597,106.898 117.721,106.261 118.832,105.607 119.931,104.935 121.016,104.245 122.089,103.537 123.147,102.812 124.192,102.068 125.222,101.307 126.238,100.528 127.240,99.732 128.226,98.918 129.196,98.086 130.152,97.237 131.091,96.371 132.015,95.488 132.922,94.587 133.812,93.670 134.687,92.736 135.544,91.786 136.384,90.819 137.207,89.836 138.012,88.837 138.800,87.822 139.570,86.792 140.323,85.747 141.057,84.687 141.774,83.611 142.472,82.522 143.152,81.418 143.813,80.301 144.456,79.170 145.081,78.025 145.687,76.868 146.275,75.698 146.844,74.515 147.394,73.321 147.926,72.115 148.440,70.898 148.935,69.670 149.412,68.431 149.870,67.183 150.310,65.924 150.732,64.656 151.137,63.379 151.523,62.094 151.892,60.800 152.243,59.499 152.577,58.190 152.893,56.874 153.193,55.551 153.476,54.222 153.743,52.888 153.994,51.548 154.229,50.203 154.448,48.853 154.652,47.500 154.841,46.142 155.016,44.781 155.176,43.417 155.323,42.050 155.457,40.681 155.577,39.310 155.685,37.938 155.781,36.564 155.866,35.190 155.940,33.815 156.003,32.440 156.056,31.065 156.099,29.691 156.134,28.317 156.160,26.945 156.179,25.573 156.191,24.204 156.196,22.836 156.196,21.470 156.190,20.107 156.180,18.745 156.167,17.387 156.150,16.031 156.131,14.678 156.111,13.328 156.090,11.981 156.069,10.638 156.048,9.297 156.030,7.960 156.014,6.626 156.001,5.295 155.992,3.967 155.989,2.642 155.991,1.320 156.000,0.000"/>
<polyline class="cv" points="0.000,120.000 35.354,119.620 66.858,118.663 105.314,127.969 147.726,112.581 161.237,69.303 155.671,33.710 156.000,0.000"/>
<circle class="pt" cx="0.000" cy="120.000" r="3"/>
<circle class="pt" cx="35.354" cy="119.620" r="3"/>
<circle class="pt" cx="66.858" cy="118.663" r="3"/>
<circle class="pt" cx="105.314" cy="127.969" r="3"/>
<circle class="pt" cx="147.726" cy="112.581" r="3"/>
<circle class="pt" cx="161.237" cy="69.303" r="3"/>
<circle class="pt" cx="155.671" cy="33.710" r="3"/>
<circle class="pt" cx="156.000" cy="0.000" r="3"/>
<line class="comb" x1="0.000" y1="120.000" x2="-0.009" y2="119.178"/>
<line class="comb" x1="8.218" y1="119.910" x2="8.228" y2="120.919"/>
<line class="comb" x1="16.331" y1="119.851" x2="16.338" y2="121.564"/>
<line class="comb" x1="24.401" y1="119.848" x2="24.397" y2="121.249"/>
<line class="comb" x1="32.472" y1="119.890" x2="32.470" y2="120.181"/>
<line class="comb" x1="40.573" y1="119.940" x2="40.579" y2="118.564"/>
<line class="comb" x1="48.715" y1="119.942" x2="48.696" y2="116.546"/>
<line class="comb" x1="56.893" y1="119.827" x2="56.755" y2="114.198"/>
<line class="comb" x1="65.086" y1="119.516" x2="64.661" y2="111.526"/>
<line class="comb" x1="73.262" y1="118.929" x2="72.298" y2="108.499"/>
<line class="comb" x1="81.374" y1="117.985" x2="79.535" y2="105.077"/>
<line class="comb" x1="89.368" y1="116.608" x2="86.230" y2="101.249"/>
<line class="comb" x1="97.180" y1="114.731" x2="92.251" y2="97.056"/>
<line class="comb" x1="104.741" y1="112.298" x2="97.499" y2="92.607"/>
<line class="comb" x1="111.982" y1="109.267" x2="101.950" y2="88.086"/>
<line class="comb" x1="118.832" y1="105.607" x2="105.692" y2="83.710"/>
<line class="comb" x1="125.222" y1="101.307" x2="108.937" y2="79.668"/>
<line class="comb" x1="131.091" y1="96.371" x2="111.991" y2="76.034"/>
<line class="comb" x1="136.384" y1="90.819" x2="115.164" y2="72.719"/>
<line class="comb" x1="141.057" y1="84.687" x2="118.665" y2="69.474"/>
<line class="comb" x1="145.081" y1="78.025" x2="122.543" y2="65.974"/>
<line class="comb" x1="148.440" y1="70.898" x2="126.696" y2="61.928"/>
<line class="comb" x1="151.137" y1="63.379" x2="130.936" y2="57.147"/>
<line class="comb" x1="153.193" y1="55.551" x2="135.082" y2="51.569"/>
<line class="comb" x1="154.652" y1="47.500" x2="139.025" y2="45.233"/>
<line class="comb" x1="155.577" y1="39.310" x2="142.762" y2="38.242"/>
<line class="comb" x1="156.056" y1="31.065" x2="146.411" y2="30.726"/>
<line class="comb" x1="156.196" y1="22.836" x2="150.207" y2="22.825"/>
<line class="comb" x1="156.131" y1="14.678" x2="154.484" y2="14.702"/>
<line class="comb" x1="156.014" y1="6.626" x2="159.601" y2="6.587"/>
<text class="label" x="10.931" y="111.885">soft_l_blend_bumper d7 span=1</text>
</svg>