<svg xmlns="http://www.w3.org/2000/svg" width="640" height="360" viewBox="-40.000 -82.195 410.000 251.841">
<style>
.target{fill:none;stroke:#9aa3ad;stroke-width:1;stroke-opacity:.45}
.curve{fill:none;stroke:#0067ff;stroke-width:2.4;stroke-linecap:round}
.cv{fill:none;stroke:#ff7a00;stroke-width:1.2;stroke-dasharray:6 4}
.pt{fill:#ff7a00;stroke:white;stroke-width:1}
.comb{stroke:#00a36c;stroke-width:.8;stroke-opacity:.65}
.label{font:12px sans-serif;fill:#1f2937}
</style>
<polyline class="target" points="0.000,0.000 30.000,-8.000 60.000,-16.000 90.000,-20.000 120.000,-17.000 150.000,-7.000 180.000,6.000 210.000,17.000 240.000,21.000 270.000,16.000 300.000,6.000 330.000,0.000"/>
<polyline class="target" points="0.000,120.000 40.000,120.000 80.000,119.000 115.000,112.000 140.000,92.000 153.000,62.000 156.000,30.000 156.000,0.000"/>
<polyline class="curve" points="0.000,0.000 1.795,-0.393 3.597,-0.814 5.405,-1.259 7.220,-1.727 9.040,-2.216 10.866,-2.723 12.698,-3.246 14.534,-3.782 16.375,-4.331 18.220,-4.889 20.070,-5.455 21.923,-6.027 23.780,-6.603 25.640,-7.181 27.503,-7.760 29.369,-8.338 31.238,-8.913 33.109,-9.484 34.982,-10.049 36.856,-10.607 38.733,-11.156 40.611,-11.696 42.490,-12.224 44.370,-12.740 46.251,-13.242 48.133,-13.730 50.015,-14.202 51.898,-14.657 53.781,-15.094 55.663,-15.513 57.546,-15.912 59.429,-16.292 61.311,-16.650 63.192,-16.987 65.073,-17.301 66.953,-17.592 68.832,-17.860 70.711,-18.105 72.588,-18.324 74.464,-18.519 76.339,-18.689 78.212,-18.834 80.084,-18.953 81.954,-19.046 83.823,-19.113 85.691,-19.154 87.557,-19.169 89.421,-19.157 91.283,-19.119 93.143,-19.055 95.002,-18.965 96.859,-18.849 98.714,-18.707 100.567,-18.539 102.418,-18.346 104.267,-18.128 106.114,-17.885 107.960,-17.618 109.803,-17.327 111.645,-17.012 113.485,-16.673 115.323,-16.312 117.159,-15.929 118.993,-15.524 120.826,-15.098 122.656,-14.651 124.485,-14.185 126.312,-13.699 128.138,-13.195 129.962,-12.672 131.785,-12.133 133.605,-11.577 135.425,-11.005 137.243,-10.419 139.060,-9.818 140.875,-9.204 142.689,-8.577 144.502,-7.939 146.314,-7.290 148.125,-6.631 149.935,-5.963 151.744,-5.287 153.553,-4.604 155.360,-3.914 157.167,-3.219 158.973,-2.520 160.779,-1.817 162.584,-1.112 164.389,-0.405 166.193,0.303 167.998,1.010 169.802,1.716 171.606,2.420 173.410,3.121 175.214,3.817 177.019,4.509 178.823,5.194 180.628,5.873 182.433,6.543 184.239,7.205 186.045,7.857 187.852,8.498 189.659,9.128 191.468,9.746 193.277,10.350 195.087,10.941 196.898,11.516 198.709,12.076 200.522,12.619 202.336,13.144 204.152,13.652 205.968,14.141 207.786,14.610 209.605,15.060 211.425,15.488 213.247,15.895 215.070,16.280 216.895,16.642 218.721,16.981 220.549,17.296 222.379,17.587 224.210,17.853 226.043,18.094 227.877,18.310 229.713,18.500 231.551,18.663 233.390,18.800 235.231,18.911 237.074,18.995 238.918,19.052 240.764,19.081 242.612,19.084 244.462,19.059 246.313,19.008 248.165,18.929 250.020,18.823 251.875,18.691 253.733,18.532 255.591,18.347 257.451,18.135 259.313,17.899 261.175,17.637 263.039,17.351 264.904,17.040 266.771,16.706 268.638,16.349 270.506,15.971 272.375,15.571 274.244,15.150 276.114,14.710 277.985,14.252 279.856,13.776 281.728,13.283 283.600,12.776 285.471,12.254 287.343,11.720 289.215,11.174 291.086,10.618 292.956,10.054 294.826,9.484 296.696,8.908 298.564,8.329 300.431,7.748 302.297,7.167 304.161,6.588 306.024,6.014 307.885,5.446 309.744,4.887 311.601,4.338 313.455,3.803 315.307,3.283 317.156,2.781 319.001,2.300 320.844,1.842 322.683,1.410 324.518,1.007 326.350,0.635 328.177,0.299 330.000,0.000"/>
<polyline class="cv" points="0.000,0.000 45.809,-9.678 97.121,-42.195 144.560,-29.301 186.377,27.628 233.341,45.521 283.445,7.131 330.000,0.000"/>
<circle class="pt" cx="0.000" cy="0.000" r="3"/>
<circle class="pt" cx="45.809" cy="-9.678" r="3"/>
<circle class="pt" cx="97.121" cy="-42.195" r="3"/>
<circle class="pt" cx="144.560" cy="-29.301" r="3"/>
<circle class="pt" cx="186.377" cy="27.628" r="3"/>
<circle class="pt" cx="233.341" cy="45.521" r="3"/>
<circle class="pt" cx="283.445" cy="7.131" r="3"/>
<circle class="pt" cx="330.000" cy="0.000" r="3"/>
<line class="comb" x1="0.000" y1="0.000" x2="-4.233" y2="-19.334"/>
<line class="comb" x1="10.866" y1="-2.723" x2="8.367" y2="-11.600"/>
<line class="comb" x1="21.923" y1="-6.027" x2="21.391" y2="-7.746"/>
<line class="comb" x1="33.109" y1="-9.484" x2="34.216" y2="-5.834"/>
<line class="comb" x1="44.370" y1="-12.740" x2="46.559" y2="-4.653"/>
<line class="comb" x1="55.663" y1="-15.513" x2="58.252" y2="-3.601"/>
<line class="comb" x1="66.953" y1="-17.592" x2="69.194" y2="-2.536"/>
<line class="comb" x1="78.212" y1="-18.834" x2="79.423" y2="-1.617"/>
<line class="comb" x1="89.421" y1="-19.157" x2="89.181" y2="-1.095"/>
<line class="comb" x1="100.567" y1="-18.539" x2="98.867" y2="-1.079"/>
<line class="comb" x1="111.645" y1="-17.012" x2="108.878" y2="-1.421"/>
<line class="comb" x1="122.656" y1="-14.651" x2="119.448" y2="-1.794"/>
<line class="comb" x1="133.605" y1="-11.577" x2="130.603" y2="-1.885"/>
<line class="comb" x1="144.502" y1="-7.939" x2="142.230" y2="-1.538"/>
<line class="comb" x1="155.360" y1="-3.914" x2="154.162" y2="-0.787"/>
<line class="comb" x1="166.193" y1="0.303" x2="166.241" y2="0.180"/>
<line class="comb" x1="177.019" y1="4.509" x2="178.319" y2="1.099"/>
<line class="comb" x1="187.852" y1="8.498" x2="190.242" y2="1.705"/>
<line class="comb" x1="198.709" y1="12.076" x2="201.830" y2="1.817"/>
<line class="comb" x1="209.605" y1="15.060" x2="212.893" y2="1.421"/>
<line class="comb" x1="220.549" y1="17.296" x2="223.293" y2="0.736"/>
<line class="comb" x1="231.551" y1="18.663" x2="233.065" y2="0.164"/>
<line class="comb" x1="242.612" y1="19.084" x2="242.499" y2="0.119"/>
<line class="comb" x1="253.733" y1="18.532" x2="252.088" y2="0.778"/>
<line class="comb" x1="264.904" y1="17.040" x2="262.306" y2="1.995"/>
<line class="comb" x1="276.114" y1="14.710" x2="273.417" y2="3.478"/>
<line class="comb" x1="287.343" y1="11.720" x2="285.434" y2="5.105"/>
<line class="comb" x1="298.564" y1="8.329" x2="298.216" y2="7.210"/>
<line class="comb" x1="309.744" y1="4.887" x2="311.502" y2="10.785"/>
<line class="comb" x1="320.844" y1="1.842" x2="324.668" y2="17.661"/>
<text class="label" x="14.534" y="-11.782">beltline_s_curve d7 span=1</text>
<polyline class="curve" points="0.000,120.000 1.370,119.929 2.733,119.864 4.092,119.804 5.445,119.749 6.794,119.699 8.139,119.655 9.481,119.617 10.820,119.583 12.156,119.555 13.491,119.532 14.823,119.515 16.155,119.502 17.486,119.494 18.816,119.490 20.146,119.491 21.476,119.497 22.807,119.506 24.138,119.519 25.470,119.536 26.803,119.555 28.137,119.578 29.473,119.604 30.811,119.632 32.150,119.662 33.491,119.693 34.834,119.726 36.180,119.760 37.527,119.795 38.877,119.830 40.230,119.865 41.584,119.900 42.941,119.933 44.300,119.966 45.662,119.996 47.026,120.025 48.392,120.051 49.760,120.074 51.130,120.094 52.502,120.111 53.877,120.123 55.253,120.130 56.630,120.132 58.009,120.129 59.389,120.120 60.771,120.105 62.153,120.083 63.537,120.054 64.920,120.017 66.304,119.972 67.689,119.919 69.073,119.857 70.457,119.786 71.840,119.705 73.222,119.614 74.603,119.513 75.982,119.400 77.360,119.277 78.736,119.142 80.110,118.995 81.480,118.835 82.848,118.663 84.213,118.478 85.574,118.279 86.931,118.067 88.283,117.841 89.631,117.600 90.975,117.345 92.312,117.074 93.644,116.789 94.970,116.487 96.290,116.170 97.603,115.837 98.908,115.488 100.206,115.122 101.497,114.739 102.779,114.339 104.052,113.922 105.316,113.488 106.572,113.036 107.817,112.566 109.052,112.079 110.277,111.573 111.491,111.049 112.694,110.507 113.885,109.947 115.065,109.368 116.232,108.770 117.387,108.154 118.529,107.519 119.657,106.865 120.772,106.193 121.873,105.502 122.960,104.792 124.033,104.063 125.090,103.316 126.132,102.550 127.159,101.765 128.170,100.962 129.165,100.140 130.144,99.299 131.107,98.441 132.052,97.564 132.980,96.669 133.892,95.756 134.785,94.826 135.661,93.878 136.519,92.912 137.359,91.929 138.181,90.930 138.984,89.913 139.768,88.880 140.534,87.830 141.281,86.765 142.009,85.683 142.717,84.586 143.407,83.474 144.077,82.347 144.728,81.205 145.359,80.049 145.971,78.879 146.563,77.695 147.136,76.498 147.690,75.288 148.224,74.065 148.738,72.830 149.234,71.583 149.709,70.325 150.166,69.056 150.604,67.776 151.022,66.486 151.422,65.186 151.803,63.877 152.166,62.559 152.510,61.232 152.837,59.897 153.145,58.555 153.436,57.205 153.709,55.849 153.966,54.486 154.205,53.118 154.428,51.745 154.635,50.366 154.827,48.983 155.003,47.597 155.164,46.206 155.311,44.813 155.443,43.418 155.562,42.020 155.668,40.621 155.761,39.221 155.843,37.820 155.912,36.419 155.971,35.018 156.019,33.618 156.058,32.219 156.087,30.821 156.108,29.426 156.121,28.033 156.127,26.644 156.126,25.257 156.120,23.874 156.109,22.495 156.094,21.121 156.075,19.752 156.054,18.387 156.031,17.029 156.008,15.676 155.984,14.329 155.961,12.989 155.941,11.656 155.923,10.330 155.908,9.011 155.899,7.699 155.895,6.396 155.898,5.100 155.909,3.813 155.929,2.533 155.959,1.262 156.000,0.000"/>
<polyline class="cv" points="0.000,120.000 35.107,118.128 65.168,120.128 106.851,129.647 149.404,114.271 162.919,70.904 154.802,32.171 156.000,0.000"/>
<circle class="pt" cx="0.000" cy="120.000" r="3"/>
<circle class="pt" cx="35.107" cy="118.128" r="3"/>
<circle class="pt" cx="65.168" cy="120.128" r="3"/>
<circle class="pt" cx="106.851" cy="129.647" r="3"/>
<circle class="pt" cx="149.404" cy="114.271" r="3"/>
<circle class="pt" cx="162.919" cy="70.904" r="3"/>
<circle class="pt" cx="154.802" cy="32.171" r="3"/>
<circle class="pt" cx="156.000" cy="0.000" r="3"/>
<line class="comb" x1="0.000" y1="120.000" x2="0.240" y2="124.655"/>
<line class="comb" x1="8.139" y1="119.655" x2="8.307" y2="125.104"/>
<line class="comb" x1="16.155" y1="119.502" x2="16.195" y2="124.558"/>
<line class="comb" x1="24.138" y1="119.519" x2="24.096" y2="123.227"/>
<line class="comb" x1="32.150" y1="119.662" x2="32.110" y2="121.405"/>
<line class="comb" x1="40.230" y1="119.865" x2="40.243" y2="119.326"/>
<line class="comb" x1="48.392" y1="120.051" x2="48.445" y2="117.112"/>
<line class="comb" x1="56.630" y1="120.132" x2="56.629" y2="114.771"/>
<line class="comb" x1="64.920" y1="120.017" x2="64.691" y2="112.236"/>
<line class="comb" x1="73.222" y1="119.614" x2="72.511" y2="109.409"/>
<line class="comb" x1="81.480" y1="118.835" x2="79.951" y2="106.198"/>
<line class="comb" x1="89.631" y1="117.600" x2="86.856" y2="102.546"/>
<line class="comb" x1="97.603" y1="115.837" x2="93.074" y2="98.463"/>
<line class="comb" x1="105.316" y1="113.488" x2="98.477" y2="94.046"/>
<line class="comb" x1="112.694" y1="110.507" x2="103.013" y2="89.484"/>
<line class="comb" x1="119.657" y1="106.865" x2="106.753" y2="85.031"/>
<line class="comb" x1="126.132" y1="102.550" x2="109.926" y2="80.927"/>
<line class="comb" x1="132.052" y1="97.564" x2="112.884" y2="77.289"/>
<line class="comb" x1="137.359" y1="91.929" x2="116.004" y2="74.033"/>
<line class="comb" x1="142.009" y1="85.683" x2="119.543" y2="70.868"/>
<line class="comb" x1="145.971" y1="78.879" x2="123.551" y2="67.409"/>
<line class="comb" x1="149.234" y1="71.583" x2="127.885" y2="63.307"/>
<line class="comb" x1="151.803" y1="63.877" x2="132.299" y2="58.356"/>
<line class="comb" x1="153.709" y1="55.849" x2="136.567" y2="52.509"/>
<line class="comb" x1="155.003" y1="47.597" x2="140.564" y2="45.843"/>
<line class="comb" x1="155.761" y1="39.221" x2="144.310" y2="38.508"/>
<line class="comb" x1="156.087" y1="30.821" x2="147.991" y2="30.676"/>
<line class="comb" x1="156.109" y1="22.495" x2="151.975" y2="22.535"/>
<line class="comb" x1="155.984" y1="14.329" x2="156.846" y2="14.315"/>
<line class="comb" x1="155.895" y1="6.396" x2="163.397" y2="6.394"/>
<text class="label" x="10.820" y="111.583">soft_l_blend_bumper d7 span=1</text>
</svg>